/* XPM */
static char *TicTactoe[]={
"32 32 152 2",
"Qt c None",
".i c #000000",
".e c #006699",
"#q c #110011",
"#R c #111100",
".j c #111111",
".z c #112211",
"#j c #112222",
".n c #114433",
"#u c #221122",
".b c #222222",
".6 c #222233",
"#W c #222244",
".l c #223322",
".o c #223333",
".9 c #223344",
".O c #224433",
".m c #224444",
".s c #225533",
"ap c #330000",
"#U c #332211",
"#Q c #332222",
"aj c #332233",
"#Y c #332244",
"#x c #332255",
"#J c #333322",
".A c #333333",
"#L c #333355",
".P c #334444",
".c c #334466",
".f c #335544",
".t c #335555",
".C c #335566",
".d c #335577",
".y c #336633",
".3 c #336655",
".J c #337744",
"#2 c #442244",
"ad c #442255",
"#6 c #443366",
".k c #444444",
"#I c #444477",
"#l c #445577",
".h c #446666",
"#k c #446688",
"#z c #446699",
".M c #447744",
".V c #447755",
"#A c #447777",
".H c #448855",
"#e c #448866",
".4 c #448899",
".g c #449966",
".N c #44aa66",
"#K c #552211",
"#V c #553311",
"#9 c #553366",
"#X c #554499",
".B c #555555",
"#f c #555599",
"#H c #5555aa",
"#N c #556699",
"#r c #5566aa",
"## c #5577bb",
".Q c #558899",
"#h c #5588aa",
"#w c #559955",
"#d c #559966",
".U c #559999",
".F c #55aaaa",
".T c #55aabb",
".p c #55bb77",
".8 c #55bb99",
"#i c #55bbaa",
".Y c #55cc88",
"as c #662211",
"au c #662222",
"ao c #663311",
"a. c #664422",
"#0 c #664488",
"#S c #6644aa",
"#8 c #665599",
"#y c #6655aa",
".# c #666666",
"#s c #6666bb",
"#a c #6688dd",
".E c #6699bb",
"#G c #6699cc",
".u c #66aa99",
"#n c #66bbaa",
".0 c #66bbbb",
".R c #66bbdd",
".X c #66cc88",
".5 c #66cc99",
".G c #66cccc",
".2 c #66dd99",
"av c #774422",
"ab c #774433",
"af c #774488",
"ar c #775533",
"#7 c #7755aa",
"#E c #7766bb",
".a c #777777",
"#. c #7788dd",
"#O c #7788ee",
"#c c #7799ff",
"#b c #77aaff",
".W c #77cc66",
".D c #77ccee",
".r c #77dd99",
"#m c #77ddcc",
".S c #77ddff",
".x c #77ee99",
".q c #77ffaa",
"#t c #77ffdd",
".w c #77ffee",
"#5 c #8844aa",
"al c #885544",
"#o c #886633",
"#P c #886644",
"#1 c #8877dd",
"#g c #8899ff",
".7 c #88ccff",
".Z c #88ddff",
".K c #88ee77",
".L c #88ff77",
".1 c #88ff88",
".I c #88ffaa",
".v c #88ffee",
"aa c #9955aa",
"#Z c #9966bb",
"#F c #9977ff",
"#M c #9988ff",
"ak c #aa55bb",
"ag c #aa66cc",
"#B c #aa7755",
"ac c #aa7766",
"an c #aa8866",
"#p c #aa9977",
"ae c #bb66dd",
"#4 c #bb77ee",
"#T c #bb8866",
"at c #bbaa88",
"a# c #cc77ff",
"ai c #cc9988",
"aq c #ccaa77",
"ah c #ccaa88",
"#3 c #dd77ff",
"#v c #ddaa88",
"#D c #eebb99",
"am c #ffbbaa",
"#C c #ffccaa",
"QtQtQtQtQtQtQtQtQtQtQtQtQtQtQt.#.aQtQtQtQtQtQtQtQtQtQtQtQtQtQtQt",
"QtQtQtQtQtQtQtQtQtQtQtQt.b.c.d.e.f.g.h.i.jQtQtQtQtQtQtQtQtQtQtQt",
"QtQtQtQtQtQtQtQtQt.k.l.m.m.n.m.o.p.q.q.r.s.i.iQtQtQtQtQtQtQtQtQt",
"QtQtQtQtQtQtQt.b.b.t.u.v.w.w.v.f.x.q.q.q.x.y.s.l.z.AQtQtQtQtQtQt",
"QtQtQtQt.i.B.k.C.D.E.F.w.w.v.G.H.q.I.q.x.J.K.L.M.N.O.#QtQtQtQtQt",
"QtQtQtQt.P.Q.R.S.S.T.u.v.w.v.U.q.q.q.q.V.W.L.L.K.H.X.Y.f.iQtQtQt",
"QtQtQtQt.k.R.Z.S.S.0.F.v.w.w.g.q.q.q.H.W.1.L.L.1.1.M.2.3.iQtQtQt",
"QtQtQtQt.i.4.S.S.S.T.u.v.w.5.p.q.q.H.W.L.L.L.L.L.1.K.H.jQtQtQtQt",
"QtQtQtQt.6.c.S.S.7.E.8.v.w.t.x.q.H.W.L.L.L.L.1.L.L.1.L.y.jQtQtQt",
"QtQt.i.9#.##.E.S.S.T.F.w.G.p.q.H.W.L.L.L.L.1.L.L.L.L.1.K.y.jQtQt",
"QtQt.6#a#b#c.d.S.S.T.U.v.8.x#d.W.L.L.L.1.1.L.L.1.1.L.L.L.1.y.iQt",
".i.9#a#c#c#c##.R.S.0.u.v#e.M.W.1.L.L.L.1.1.L.L.L.L.L.L.L.1.W.zQt",
".B#f#c#c#g#c#a#h.S.T.F#i.V.M.K.L.L.L.L.L.L.1.L.L.L.L.1.L.L.H.BQt",
".i#j#k#c#g#c#c#l.D.T.u#m#n.m.y.L.L.L#o#p.L.L.1.L.L.1.L.L.y.AQtQt",
"Qt.A#q#r#c#c#c#s.Q.0.U#t#t#t.U.M.K#u#v.A.K.L.L.1.1.L.L#w.kQtQtQt",
"Qt.A#x#y#z#c#c#c#k.R#A.4#A.o.d.j.l#B#C#D.W.L.L.1.1.L#w.l.iQtQtQt",
"Qt.j#E#F#y#r#c#c###G.R.Q#l#.#H#I#J#C#C#D#w.L.1.L.L#w#KQtQtQtQtQt",
".i#L#F#M#F#y#N#c#O#l###O#c#k#E#u#P#C#C#D#Q#d.L.L.M#K#RQtQtQtQtQt",
".i#I#F#F#M#M#S###c#c#c#c#r#y#E.b#T#C#C#B#U.P.W#w#Q#V#VQtQtQtQtQt",
".i.6#W#E#M#M#F#y#z#c#c#f#y#M#X.i#T#C#C#B#U#J#J#Q#Q#V#RQtQtQtQtQt",
"QtQt#Y#Z#0#E#1#F#y#s#r#y#F#F#0#U#P#C#C#B#Q#Q#Q#Q#V#U.iQtQtQtQtQt",
"QtQt#2#3#3#4#5#6#E#7#E#F#M#8#9a.#P#C#C#v#V#Q#Q#U#VQtQtQtQtQtQtQt",
"QtQt#2#3#3#3#3a#aa#0#E#1#F#6ab#Cac#C#C#C#T#V#Q#Q#V#RQtQtQtQtQtQt",
"QtQtad#3#3#3#3#3#3a#aeaf#Lagac#Cah#C#C#C#Cai#V#Q#K#UQtQtQtQtQtQt",
"QtQtajakak#Zak#Zakak#Zakaaaaai#C#D#C#C#C#C#Dal#U#V#KQtQtQtQtQtQt",
"QtQt.i.i.i.i.i.i.i.i.i.i.i.ial#C#C#C#C#C#Camanao#Vao#RQtQtQtQtQt",
"QtQtQtQtQtQtQtQtQtQtQtQtQtQt#Ral#C#C#C#C#C#C#valab#VapQtQtQtQtQt",
"QtQtQtQtQtQtQtQtQtQtQtQtQtQtQt#K#v#C#C#C#C#C#CaqacarasQtQtQtQtQt",
"QtQtQtQtQtQtQtQtQtQtQtQtQtQtQtQt#B#C#C#C#C#C#C#Dai#BasQtQtQtQtQt",
"QtQtQtQtQtQtQtQtQtQtQtQtQtQtQtQt#U#C#C#C#C#C#C#C#vanaoQtQtQtQtQt",
"QtQtQtQtQtQtQtQtQtQtQtQtQtQtQtQt#R#o#C#C#C#C#C#C#DatauQtQtQtQtQt",
"QtQtQtQtQtQtQtQtQtQtQtQtQtQtQtQt.ia.#C#C#C#C#C#C#C#CavQtQtQtQtQt"};
